<?xml version="1.0" encoding="UTF-8"?>
<svg version="1.1" xmlns="http://www.w3.org/2000/svg" width="512" height="512">
<path d="M0 0 C1.33921005 -0.01073296 1.33921005 -0.01073296 2.70547485 -0.02168274 C3.67748337 -0.02437164 4.64949188 -0.02706055 5.6509552 -0.02983093 C7.19559448 -0.03968773 7.19559448 -0.03968773 8.7714386 -0.04974365 C12.18025283 -0.06945813 15.58902304 -0.08113556 18.99787903 -0.09111023 C20.74625281 -0.09722352 20.74625281 -0.09722352 22.52994728 -0.10346031 C28.7000015 -0.12431376 34.87003353 -0.13861831 41.04011536 -0.147995 C47.40432606 -0.15905419 53.76818664 -0.193451 60.13227367 -0.23316669 C65.03345376 -0.25934561 69.9345506 -0.26768803 74.83579445 -0.27127647 C77.18126603 -0.27613955 79.52673396 -0.2877455 81.87213707 -0.30631447 C85.16066903 -0.33073079 88.44829734 -0.32973583 91.7368927 -0.32279968 C92.69878006 -0.33560974 93.66066742 -0.3484198 94.65170288 -0.36161804 C103.97635145 -0.29022292 110.9574162 2.88420844 117.72834778 9.23701477 C125.86470927 17.92409069 126.64167675 27.04769382 126.56037903 38.49873352 C126.55727722 39.33187073 126.55417542 40.16500793 126.55097961 41.02339172 C126.54293158 43.06466629 126.53060283 45.10592322 126.51741028 47.14717102 C127.36994888 47.13828857 128.22248749 47.12940613 129.1008606 47.12025452 C137.17654124 47.03975674 145.2520851 46.97902903 153.32807636 46.93992233 C157.47900976 46.9191405 161.62960874 46.89099754 165.78034973 46.84541321 C169.79393947 46.80161622 173.80720967 46.7779634 177.82102013 46.76766205 C179.34428619 46.76033085 180.86753685 46.74601643 182.39066505 46.72425079 C196.78093607 46.52698739 207.03691715 49.18879781 217.61116028 59.11201477 C227.19760744 69.0025097 229.65556778 80.38790744 229.72053528 93.71748352 C229.72623535 94.63496368 229.73193542 95.55244385 229.73780823 96.49772644 C229.7472274 98.43587605 229.75377991 100.37404144 229.75764465 102.31221008 C229.76731029 105.2418653 229.79834675 108.1708063 229.82991028 111.10029602 C229.93108528 128.75726239 227.73717522 142.2325758 214.93537903 155.26045227 C212.64591399 157.04690076 210.40790157 158.37293178 207.86628723 159.76509094 C207.05279312 160.21212875 206.23929901 160.65916656 205.40115356 161.11975098 C204.77951828 161.45879959 204.157883 161.79784821 203.51741028 162.14717102 C203.51382775 163.12204358 203.51382775 163.12204358 203.51017284 164.11661053 C203.45102924 179.93263664 203.3754834 195.74848656 203.28169537 211.56434155 C203.23673536 219.21278696 203.19732122 226.8611858 203.17097473 234.50971985 C203.14799625 241.17641574 203.11460002 247.84296424 203.06870872 254.50954324 C203.0447743 258.0392639 203.02604704 261.56883858 203.01979637 265.09863853 C203.0126222 269.03970219 202.98218901 272.98039998 202.94978333 276.92134094 C202.95121841 278.09090836 202.9526535 279.26047577 202.95413208 280.46548462 C202.93532486 282.07869095 202.93532486 282.07869095 202.9161377 283.7244873 C202.91152873 284.65642001 202.90691977 285.58835272 202.90217113 286.54852581 C202.43765165 289.68585467 201.36002001 291.58655186 199.51741028 294.14717102 C196.42567276 295.69303978 193.92311475 295.44076623 190.51741028 295.14717102 C187.93191342 293.15169653 186.68101157 291.95447063 186.02521896 288.71842575 C186.02890614 287.80769428 186.03259331 286.89696281 186.03639221 285.95863342 C186.02814423 284.38535278 186.02814423 284.38535278 186.01972961 282.7802887 C186.04130127 281.06262299 186.04130127 281.06262299 186.06330872 279.31025696 C186.06272461 278.1002301 186.0621405 276.89020325 186.0615387 275.64350891 C186.06384726 272.32941035 186.0838995 269.01630973 186.11183453 265.70238781 C186.13684804 262.23774343 186.13919012 258.77308561 186.14393616 255.30836487 C186.15636616 248.74933283 186.18918783 242.19056763 186.22933412 235.63165307 C186.27405129 228.16378366 186.29603868 220.69590147 186.31611586 213.2279315 C186.35792065 197.8675235 186.42827287 182.50738167 186.51741028 167.14717102 C185.67193634 167.31485489 184.8264624 167.48253876 183.95536804 167.65530396 C152.57033466 173.85999833 152.57033466 173.85999833 137.64241028 175.83467102 C136.92065613 175.93323395 136.19890198 176.03179687 135.45527649 176.13334656 C119.19488807 178.35061224 102.87367703 179.84263365 86.51741028 181.14717102 C86.53312073 181.9890094 86.54883118 182.83084778 86.5650177 183.69819641 C86.61643279 186.84970284 86.65389908 190.00099401 86.6822052 193.15278625 C86.69720437 194.51158219 86.71761066 195.87033043 86.74372864 197.22895813 C87.00883244 211.38342185 87.00883244 211.38342185 83.51741028 217.14717102 C79.2817038 221.17109218 76.0603755 222.26365316 70.3150177 222.32417297 C68.72272591 222.34342583 68.72272591 222.34342583 67.0982666 222.36306763 C65.9513887 222.37045456 64.8045108 222.37784149 63.62287903 222.38545227 C62.44276749 222.39352402 61.26265594 222.40159576 60.04678345 222.40991211 C57.54766814 222.42375016 55.04853395 222.43447356 52.5493927 222.44233704 C48.73042469 222.45955598 44.91232089 222.50344714 41.09358215 222.54756165 C38.66585414 222.55768807 36.23811878 222.56620433 33.81037903 222.57295227 C32.09917122 222.5992144 32.09917122 222.5992144 30.35339355 222.62600708 C24.27568747 222.60940484 20.14575686 222.52691187 15.51741028 218.14717102 C11.7358464 213.65941147 11.03073548 210.59099604 11.12678528 204.77998352 C11.13244507 204.10039581 11.13810486 203.42080811 11.14393616 202.72062683 C11.16615677 200.57039553 11.2163183 198.42189028 11.26741028 196.27217102 C11.28749414 194.80604942 11.3057416 193.33990144 11.32209778 191.87373352 C11.36597217 188.29766094 11.43489585 184.72258471 11.51741028 181.14717102 C10.28208557 181.17544983 10.28208557 181.17544983 9.02180481 181.20429993 C-0.28956208 181.32262619 -9.36892264 180.62462142 -18.60758972 179.52217102 C-19.34827698 179.43613617 -20.08896423 179.35010132 -20.85209656 179.26145935 C-43.56607581 176.60851823 -66.07289933 172.67040056 -88.48258972 168.14717102 C-88.47890255 168.70947261 -88.47521538 169.2717742 -88.47141647 169.85111523 C-88.38304385 183.53894117 -88.31712514 197.22671708 -88.27534103 210.91476727 C-88.25445583 217.53425404 -88.22612045 224.15353508 -88.18083191 230.77290344 C-88.13740852 237.15954425 -88.11345965 243.54598703 -88.10308075 249.93276405 C-88.09568316 252.37086416 -88.08123765 254.80895329 -88.05966949 257.24696922 C-88.03068314 260.65884805 -88.02663186 264.0699059 -88.02848816 267.48188782 C-88.01410706 268.49249268 -87.99972595 269.50309753 -87.98490906 270.54432678 C-88.0108851 274.94919333 -88.05606369 277.44638472 -90.38597107 281.27444458 C-92.64825728 283.29514739 -93.49653866 283.80881725 -96.48258972 283.70967102 C-97.14258972 283.71096008 -97.80258972 283.71224915 -98.48258972 283.71357727 C-101.61200574 282.82731687 -102.56291837 281.82831952 -104.48258972 279.14717102 C-105.06270886 275.48109513 -104.94219771 271.84310572 -104.86979675 268.1398468 C-104.8640715 267.01748627 -104.85834625 265.89512573 -104.85244751 264.73875427 C-104.83833423 262.3007453 -104.8155111 259.86277488 -104.78505325 257.42491531 C-104.74009996 253.56654025 -104.72483284 249.70913008 -104.71864319 245.85050964 C-104.69770847 234.88010134 -104.63956305 223.91042753 -104.52067566 212.94062805 C-104.44831328 206.23133222 -104.42857858 199.52354372 -104.43738937 192.81379318 C-104.43108146 190.25642004 -104.40616762 187.69902295 -104.36235428 185.14201736 C-104.30234032 181.5642765 -104.3037967 177.9913837 -104.3190155 174.4132843 C-104.2861293 173.35645447 -104.2532431 172.29962463 -104.21936035 171.21076965 C-104.26965812 168.20610797 -104.40444548 165.95581033 -105.48258972 163.14717102 C-108.53350139 160.45171202 -111.81969814 158.86199959 -115.48258972 157.14717102 C-123.92611474 150.43046 -129.3673895 141.76742444 -131.48258972 131.14717102 C-131.77793539 127.38991881 -131.78671709 123.64516649 -131.78337097 119.87763977 C-131.7876561 118.80145889 -131.79194122 117.72527802 -131.7963562 116.6164856 C-131.80208195 114.34636638 -131.80261275 112.07622883 -131.79826355 109.80610657 C-131.79510952 106.35632054 -131.81856522 102.90739773 -131.84391785 99.4577179 C-131.84619179 97.24352626 -131.84689389 95.02933234 -131.84587097 92.81513977 C-131.85508072 91.79502304 -131.86429047 90.77490631 -131.8737793 89.72387695 C-131.79903102 77.99117722 -128.39919972 67.73271549 -120.47868347 58.91670227 C-112.72715683 51.52571175 -103.35485251 47.01465374 -92.62443542 47.03364563 C-91.93149384 47.0334996 -91.23855225 47.03335358 -90.52461243 47.03320312 C-88.23583335 47.03389939 -85.94713582 47.04167842 -83.65837097 47.04951477 C-82.07082158 47.05137997 -80.48327161 47.05280339 -78.89572144 47.05380249 C-74.71836252 47.05761968 -70.54103841 47.06744316 -66.36369324 47.07850647 C-62.10059581 47.08873774 -57.83749276 47.09330379 -53.5743866 47.0983429 C-45.21043834 47.10906613 -36.84651836 47.12613299 -28.48258972 47.14717102 C-28.49077225 46.51411041 -28.49895477 45.8810498 -28.50738525 45.22880554 C-28.54005369 42.33443161 -28.56025168 39.44009663 -28.58024597 36.54560852 C-28.59333801 35.54972717 -28.60643005 34.55384583 -28.61991882 33.52778625 C-28.67337864 23.2079029 -26.73986912 15.4868425 -19.48258972 7.86982727 C-13.749975 2.93216498 -7.57804053 0.04185799 0 0 Z M-8.48258972 20.14717102 C-14.13638618 28.6976052 -14.13638618 28.6976052 -12.48258972 47.14717102 C28.10741028 47.14717102 68.69741028 47.14717102 110.51741028 47.14717102 C111.60871824 33.67630846 111.60871824 33.67630846 106.86116028 21.18623352 C106.25272278 20.7195929 105.64428528 20.25295227 105.01741028 19.77217102 C104.40897278 19.29006165 103.80053528 18.80795227 103.17366028 18.31123352 C100.45003321 16.39698619 98.77304215 16.01911978 95.48965454 16 C94.64719177 15.9928447 93.804729 15.98568939 92.93673706 15.97831726 C92.01050034 15.97562836 91.08426361 15.97293945 90.12995911 15.97016907 C89.15580048 15.96359787 88.18164185 15.95702667 87.17796326 15.95025635 C83.94345528 15.93049315 80.70899384 15.91885302 77.47444153 15.90888977 C76.37072393 15.90481424 75.26700634 15.90073872 74.12984276 15.89653969 C68.28629619 15.87566447 62.4427732 15.86136993 56.59919739 15.852005 C50.56429826 15.84094725 44.52976853 15.80655846 38.49499989 15.76683331 C33.85467852 15.74067798 29.21444522 15.73231403 24.57405663 15.72872353 C22.34973854 15.72385353 20.12542449 15.71222786 17.90117836 15.69368553 C14.78443364 15.66932148 11.66864504 15.67025463 8.55183411 15.67720032 C7.63571854 15.66439026 6.71960297 15.6515802 5.77572632 15.63838196 C-0.15939874 15.68649573 -3.73070089 16.48283989 -8.48258972 20.14717102 Z M-109.48258972 72.14717102 C-112.84944047 77.34881782 -115.57862684 82.17891483 -115.65959167 88.4757843 C-115.67242691 89.34744232 -115.68526215 90.21910034 -115.69848633 91.11717224 C-115.70587326 92.05777496 -115.71326019 92.99837769 -115.72087097 93.96748352 C-115.72894272 94.94071564 -115.73701447 95.91394775 -115.74533081 96.91667175 C-115.75916629 98.97948936 -115.76989084 101.04232982 -115.77775574 103.10517883 C-115.79491046 106.23941867 -115.83879489 109.3725875 -115.88298035 112.50654602 C-115.89311288 114.51435079 -115.90162722 116.52216451 -115.90837097 118.52998352 C-115.92587906 119.45844086 -115.94338715 120.38689819 -115.96142578 121.3434906 C-115.93235262 130.19364093 -113.00587986 136.7467719 -107.43571472 143.54170227 C-101.14587556 148.71195006 -93.59751181 150.36276377 -85.79508972 152.02217102 C-84.63807556 152.27265198 -83.4810614 152.52313293 -82.28898621 152.78120422 C-51.44332589 159.26705422 -19.98946212 163.84188631 11.51741028 165.14717102 C11.54319153 163.9895929 11.56897278 162.83201477 11.59553528 161.63935852 C11.65184377 160.10025974 11.70919048 158.56119869 11.76741028 157.02217102 C11.78158997 156.26162415 11.79576965 155.50107727 11.81037903 154.71748352 C12.03696813 149.46061648 12.97310561 146.26589748 16.51741028 142.14717102 C20.1316852 139.5672408 22.61836193 138.76831455 27.03865051 138.74311829 C28.12004807 138.73043411 29.20144562 138.71774994 30.31561279 138.7046814 C31.4740419 138.70761703 32.63247101 138.71055267 33.82600403 138.71357727 C35.02548172 138.70833542 36.22495941 138.70309357 37.46078491 138.69769287 C39.99503303 138.69127523 42.52931094 138.69260629 45.06355286 138.7011261 C48.93738451 138.70963254 52.80974 138.68087365 56.6834259 138.64912415 C59.14761817 138.64751193 61.61181304 138.64809005 64.07600403 138.65107727 C65.23240891 138.63984329 66.38881378 138.62860931 67.58026123 138.61703491 C73.83391796 138.67112671 77.82497165 138.83044139 82.51741028 143.14717102 C86.53209756 149.51529567 86.2216651 156.79433402 86.51741028 164.14717102 C116.83330797 162.58964122 146.8828446 157.86470496 176.64241028 152.02217102 C177.4928894 151.85835938 178.34336853 151.69454773 179.21961975 151.52577209 C181.63693626 151.05634851 184.05011688 150.56985931 186.46272278 150.07685852 C187.16300598 149.94154724 187.86328918 149.80623596 188.58479309 149.66682434 C195.61260765 148.18265528 201.98223984 145.46199996 206.82991028 140.02217102 C207.783172 138.99736633 207.783172 138.99736633 208.75569153 137.95185852 C214.50017475 128.80653934 213.98435396 118.65707687 213.90852356 108.2245636 C213.89242397 105.58691353 213.90844102 102.95079053 213.92756653 100.31318665 C213.92558419 98.61070936 213.92174071 96.90823301 213.91584778 95.20576477 C213.92495682 94.04288185 213.92495682 94.04288185 213.93424988 92.85650635 C213.83282173 84.83520343 211.66608403 77.40907153 206.51741028 71.14717102 C201.05131521 66.35859614 195.93369275 62.90212179 188.46632957 62.88990211 C187.46690688 62.88345322 186.4674842 62.87700433 185.43777597 62.87036002 C184.34703228 62.87345722 183.25628859 62.87655442 182.13249207 62.87974548 C180.96808519 62.87521437 179.80367831 62.87068326 178.60398638 62.86601484 C175.37562696 62.8555448 172.14740763 62.85404499 168.91903663 62.85640359 C165.4355661 62.85681184 161.95212876 62.84577165 158.46867371 62.83628845 C151.64433769 62.81967755 144.82003623 62.81417881 137.99568169 62.8130637 C132.44621408 62.81211301 126.89675786 62.80800165 121.34729385 62.80166245 C105.60601798 62.78404768 89.86476938 62.77482363 74.12348358 62.77632339 C73.27491982 62.77640331 72.42635606 62.77648322 71.55207825 62.77656555 C70.70247534 62.77664731 69.85287244 62.77672907 68.977524 62.77681331 C55.21799116 62.77762568 41.45856794 62.75850121 27.6990668 62.73028882 C13.56352247 62.70153474 -0.57196846 62.68775 -14.70754278 62.68947637 C-22.64052608 62.69013953 -30.57339456 62.68468002 -38.50635147 62.66312027 C-45.26301887 62.64487494 -52.01951943 62.64058832 -58.77620085 62.65413912 C-62.22066837 62.66065275 -65.66481616 62.6608449 -69.10925293 62.64343262 C-72.85170902 62.62796726 -76.59333115 62.63729846 -80.33576965 62.6526947 C-81.41312901 62.64240758 -82.49048837 62.63212045 -83.60049498 62.62152159 C-93.28397369 62.70926407 -102.70069974 64.88086033 -109.48258972 72.14717102 Z M28.51741028 154.14717102 C28.51741028 170.97717102 28.51741028 187.80717102 28.51741028 205.14717102 C42.37741028 205.14717102 56.23741028 205.14717102 70.51741028 205.14717102 C70.51741028 188.31717102 70.51741028 171.48717102 70.51741028 154.14717102 C56.65741028 154.14717102 42.79741028 154.14717102 28.51741028 154.14717102 Z " fill="#000000" transform="translate(215.4825897216797,25.852828979492188)"/>
<path d="M0 0 C33.06549815 -1.11944133 61.9105207 9.64320761 92.12011719 22.00390625 C123.12655599 34.65791318 154.077358 45.18484243 187.33105469 50.140625 C199.36498371 51.96285552 209.34940092 53.65989448 217.33496094 63.6875 C222.56294292 71.39719873 224.9870092 79.35772617 223.33105469 88.640625 C221.55700957 95.37259752 218.08298791 101.27952924 212.11621094 105.0546875 C178.56100451 120.95245257 125.58625276 110.72321361 91.20605469 103.015625 C90.52075684 102.86561035 89.83545898 102.7155957 89.12939453 102.56103516 C85.46619299 101.68625475 82.66227318 100.75150103 79.95605469 98.078125 C78.95605469 94.703125 78.95605469 94.703125 78.95605469 91.078125 C80.69173825 88.00730023 81.79938269 86.43888725 85.20727539 85.37597656 C88.50462564 85.01868308 91.06829068 85.49169546 94.31152344 86.1875 C96.18312134 86.57591064 96.18312134 86.57591064 98.0925293 86.97216797 C98.75171356 87.11217224 99.41089783 87.25217651 100.09005737 87.39642334 C121.89104071 91.97959013 143.23186355 94.33434766 165.51855469 94.453125 C166.3594162 94.4611615 167.20027771 94.469198 168.06661987 94.47747803 C176.9502392 94.54203084 185.64037708 94.23768263 194.42089844 92.8046875 C195.12332169 92.69683929 195.82574493 92.58899109 196.54945374 92.47787476 C200.84142305 91.68461484 203.33092741 90.60978582 205.95605469 87.078125 C206.67869042 82.29066326 205.97938563 78.73009557 203.30908203 74.62915039 C197.77632518 68.28674615 187.9253717 67.65633447 180.11279297 66.24404907 C143.40889372 59.55352047 108.38635652 48.31822513 74.05194092 33.85842896 C61.90054007 28.74986734 49.73828866 24.37504512 36.95605469 21.078125 C36.281875 20.89185547 35.60769531 20.70558594 34.91308594 20.51367188 C25.46002612 17.95062576 16.070125 17.78624388 6.33105469 17.703125 C5.12755371 17.68902588 3.92405273 17.67492676 2.68408203 17.66040039 C-13.51163893 17.7476642 -29.32202203 21.24006094 -41.04394531 33.078125 C-43.14379469 35.74670466 -44.99669234 38.55145682 -46.85644531 41.390625 C-53.87414319 51.68486333 -62.29291848 59.64818395 -73.04394531 66.078125 C-73.70394531 66.078125 -74.36394531 66.078125 -75.04394531 66.078125 C-75.03506287 67.28446594 -75.02618042 68.49080688 -75.01702881 69.73370361 C-74.93599947 81.09326911 -74.87600698 92.4527761 -74.83669662 103.81256485 C-74.81580744 109.65299763 -74.78746509 115.49319742 -74.7421875 121.33349609 C-74.69877786 126.96800787 -74.67481824 132.6022953 -74.66443634 138.23696136 C-74.65703624 140.38841027 -74.64258584 142.53984667 -74.62102509 144.69120026 C-74.59205645 147.70098053 -74.58798663 150.70982968 -74.58984375 153.71972656 C-74.56827209 155.05868736 -74.56827209 155.05868736 -74.54626465 156.42469788 C-74.57179132 160.23918267 -74.59500519 162.40373557 -76.74383545 165.63166809 C-79.49557611 167.36213947 -81.06149349 167.57924946 -84.29980469 167.57983398 C-85.34769165 167.58921494 -86.39557861 167.59859589 -87.47521973 167.60826111 C-88.60133667 167.59702713 -89.72745361 167.58579315 -90.88769531 167.57421875 C-92.62956116 167.5764016 -92.62956116 167.5764016 -94.40661621 167.57862854 C-96.86110951 167.57696898 -99.31561316 167.56540155 -101.77001953 167.54467773 C-105.52974594 167.51573431 -109.28806179 167.52406651 -113.04785156 167.53710938 C-115.43197301 167.53087173 -117.81609 167.52248059 -120.20019531 167.51171875 C-121.32631226 167.51465439 -122.4524292 167.51759003 -123.6126709 167.52061462 C-124.66055786 167.50793045 -125.70844482 167.49524628 -126.78808594 167.48217773 C-127.70867798 167.47677475 -128.62927002 167.47137177 -129.57775879 167.46580505 C-132.53378752 167.00112269 -133.89608687 166.13709415 -136.04394531 164.078125 C-137.61717142 159.35844668 -137.22842231 154.58323029 -137.23144531 149.640625 C-137.24369141 148.59068359 -137.2559375 147.54074219 -137.26855469 146.45898438 C-137.27048828 145.44771484 -137.27242187 144.43644531 -137.27441406 143.39453125 C-137.27852295 142.47099854 -137.28263184 141.54746582 -137.28686523 140.59594727 C-137.02999301 137.9335118 -136.45144718 136.33535612 -135.04394531 134.078125 C-132.34806728 131.98133097 -130.95100131 132.08301679 -127.48144531 132.265625 C-124.04394531 133.078125 -124.04394531 133.078125 -121.04394531 136.078125 C-121.04394531 141.028125 -121.04394531 145.978125 -121.04394531 151.078125 C-111.14394531 151.078125 -101.24394531 151.078125 -91.04394531 151.078125 C-91.04394531 117.418125 -91.04394531 83.758125 -91.04394531 49.078125 C-100.94394531 49.078125 -110.84394531 49.078125 -121.04394531 49.078125 C-121.00914063 53.30238281 -120.97433594 57.52664063 -120.93847656 61.87890625 C-120.91918551 65.24581892 -120.9029165 68.61271599 -120.88869476 71.9796524 C-120.87284841 75.53464333 -120.85167075 79.08941991 -120.81762695 82.64428711 C-120.77881524 86.72251467 -120.76423929 90.80051501 -120.75097656 94.87890625 C-120.73549271 96.15397537 -120.72000885 97.42904449 -120.70405579 98.74275208 C-120.70382919 99.92374985 -120.7036026 101.10474762 -120.70336914 102.3215332 C-120.69670731 103.36300003 -120.69004547 104.40446686 -120.68318176 105.47749329 C-121.04394531 108.078125 -121.04394531 108.078125 -122.4304657 109.91300964 C-124.55637065 111.44815424 -125.94020516 111.4791624 -128.54394531 111.453125 C-129.70410156 111.46472656 -129.70410156 111.46472656 -130.88769531 111.4765625 C-133.55451173 110.9837812 -134.40575848 110.2057701 -136.04394531 108.078125 C-137.15068173 104.75791576 -137.1843227 102.25626387 -137.20507812 98.75830078 C-137.21468567 97.4532962 -137.22429321 96.14829163 -137.23419189 94.80374146 C-137.23903977 93.37697525 -137.24331862 91.95020701 -137.24707031 90.5234375 C-137.25282397 89.05996703 -137.25858168 87.59649657 -137.26434326 86.13302612 C-137.27484498 83.06475473 -137.28069311 79.99650949 -137.28417969 76.92822266 C-137.28966383 73.00177645 -137.31369331 69.07567712 -137.34215164 65.14933968 C-137.36079954 62.12611896 -137.36598475 59.10298147 -137.36751556 56.0797081 C-137.3705376 54.63245624 -137.378551 53.18520568 -137.39170074 51.73801041 C-137.40880486 49.71098979 -137.40502987 47.68382575 -137.40039062 45.65673828 C-137.40403625 44.50440704 -137.40768188 43.35207581 -137.41143799 42.16482544 C-137.00146692 38.72133401 -136.10326285 36.8423504 -134.04394531 34.078125 C-131.52177062 32.81703765 -129.7465404 32.93060144 -126.92333984 32.90112305 C-125.85528107 32.88828781 -124.78722229 32.87545258 -123.6867981 32.86222839 C-122.5284848 32.85484146 -121.37017151 32.84745453 -120.17675781 32.83984375 C-118.39735306 32.82773613 -118.39735306 32.82773613 -116.58200073 32.81538391 C-114.0685167 32.80153543 -111.5550138 32.79081671 -109.04150391 32.78295898 C-105.19169682 32.76572684 -101.34274392 32.72184363 -97.49316406 32.67773438 C-95.05436831 32.66760953 -92.61556524 32.65909278 -90.17675781 32.65234375 C-89.02249298 32.63483566 -87.86822815 32.61732758 -86.6789856 32.59928894 C-85.6046225 32.60221451 -84.5302594 32.60514008 -83.42333984 32.6081543 C-82.4789505 32.60228806 -81.53456116 32.59642181 -80.56155396 32.59037781 C-77.2928 33.22364762 -76.10888767 34.52476436 -74.04394531 37.078125 C-73.27265176 39.78754082 -73.23311209 42.24062331 -73.04394531 45.078125 C-67.47877251 40.5581877 -63.17725414 35.91020211 -59.04394531 30.078125 C-56.77506641 27.02305317 -54.44134214 24.03330542 -52.04394531 21.078125 C-51.58117187 20.48128906 -51.11839844 19.88445312 -50.64160156 19.26953125 C-40.20679282 7.2847244 -22.46663616 2.34760749 -7.29394531 0.328125 C-4.86327858 0.1655386 -2.43402506 0.09303488 0 0 Z " fill="#000000" transform="translate(164.0439453125,318.921875)"/>
<path d="M0 0 C6.82951123 4.77042638 11.13858966 10.35396991 12.7109375 18.64453125 C13.67755446 26.46669308 12.26566353 34.06556213 7.35693359 40.38867188 C3.37575688 45.03399642 -0.95400276 49.33298901 -5.2890625 53.64453125 C-6.46648469 54.84344276 -7.64231794 56.0439172 -8.81640625 57.24609375 C-13.13987843 61.64437505 -17.46456467 65.96186504 -22.140625 69.98828125 C-26.57525901 73.83071586 -30.6794216 77.9600335 -34.7890625 82.14453125 C-39.49843861 86.93968835 -44.25494581 91.57220755 -49.35107422 95.95605469 C-52.52133532 98.71815166 -55.55018964 101.62764629 -58.6015625 104.51953125 C-63.74561972 109.3570228 -68.97823467 113.98017874 -74.50390625 118.3828125 C-76.538428 120.03496971 -78.51705901 121.70494178 -80.48046875 123.4375 C-116.30901929 155.03359952 -155.83412173 165.05872078 -203.2890625 162.64453125 C-216.1000251 161.27240621 -227.97283871 155.98163847 -239.59375 150.69140625 C-273.42854895 135.29751453 -311.81968702 126.24893677 -347.9140625 139.64453125 C-351.55923311 141.03681521 -355.08533977 142.53901457 -358.5546875 144.3359375 C-362.01947207 145.9940844 -363.66530677 145.82619073 -367.2890625 144.64453125 C-369.6640625 143.01953125 -369.6640625 143.01953125 -371.2890625 140.64453125 C-371.8515625 137.20703125 -371.8515625 137.20703125 -371.2890625 133.64453125 C-361.22508262 121.91827821 -340.34704863 117.5597707 -325.546875 115.92578125 C-291.18250535 113.32216704 -260.152003 121.0305328 -229.3515625 135.89453125 C-199.82528661 150.06755183 -165.83529578 147.10224429 -135.27734375 137.11328125 C-118.62228301 131.22781193 -104.65469016 120.98998307 -91.2890625 109.64453125 C-90.43513916 108.92595947 -90.43513916 108.92595947 -89.56396484 108.19287109 C-80.41745404 100.49798104 -80.41745404 100.49798104 -71.83203125 92.19140625 C-70.20028332 90.55552732 -68.48954788 89.07520965 -66.7265625 87.58203125 C-62.09169838 83.59767438 -57.83700971 79.24729629 -53.56420898 74.88256836 C-50.68178413 71.95741048 -47.76309981 69.1561849 -44.63671875 66.4921875 C-38.68390256 61.35392193 -33.24913508 55.67273367 -27.7265625 50.08203125 C-21.42723714 43.70524383 -15.18085215 37.39084487 -8.2890625 31.64453125 C-5.84225969 28.64522458 -5.07589005 26.37456894 -4.8515625 22.58203125 C-4.9628547 18.73311049 -4.9628547 18.73311049 -6.8515625 16.39453125 C-13.75720495 11.18193402 -13.75720495 11.18193402 -22.17919922 11.03149414 C-25.98900566 12.13846289 -28.70887494 14.52503291 -31.7265625 17.01953125 C-33.13202682 18.12282157 -34.54099295 19.22166311 -35.953125 20.31640625 C-36.67016602 20.87392578 -37.38720703 21.43144531 -38.12597656 22.00585938 C-47.31040516 28.96363418 -57.27948166 34.82040806 -67.4140625 40.26953125 C-68.19563721 40.69572754 -68.97721191 41.12192383 -69.7824707 41.56103516 C-74.28196024 43.91580844 -78.11967297 45.40544698 -83.2890625 45.64453125 C-86.23661982 44.29890726 -87.83183522 43.55898581 -89.2890625 40.64453125 C-89.6640625 37.83203125 -89.6640625 37.83203125 -89.2890625 34.64453125 C-85.40106869 29.89253881 -80.80288271 27.60780064 -75.4140625 24.95703125 C-63.27120755 18.76573469 -52.42156768 11.40951576 -41.72924805 2.99243164 C-28.84921203 -7.02447676 -14.28045056 -8.45617124 0 0 Z " fill="#000000" transform="translate(472.2890625,322.35546875)"/>
</svg>
